<svg width="138" height="56" fill="none" xmlns="http://www.w3.org/2000/svg" id="svg376270527_1849"><path d="M73.237 15.75h4.726v24.412h-4.725V15.75Z" fill="white"></path><path d="M73.237 40.162v-4.725h10.471l2.13 4.725h-12.6ZM95.29 19.687c5.775 0 10.235 4.391 10.235 10.238 0 .559-.076 1.155-.152 1.714H89.889c.714 2.494 2.922 4.246 5.699 4.246 1.873 0 3.523-.78 4.573-2.048l4.536 1.3c-1.765 3.053-5.099 5.025-9.11 5.025-5.996 0-10.537-4.39-10.537-10.237s4.422-10.238 10.235-10.238h.005Zm-5.364 8.34h10.76c-.752-2.417-2.885-4.056-5.472-4.056-2.435 0-4.573 1.639-5.287 4.057Zm37.649 1.898c0 5.847-4.42 10.237-10.256 10.237-5.837 0-10.219-4.39-10.219-10.237s4.382-10.238 10.219-10.238c5.836 0 10.256 4.391 10.256 10.238Zm-10.256 5.583c3.084 0 5.423-2.418 5.423-5.583s-2.339-5.584-5.423-5.584c-3.085 0-5.423 2.419-5.423 5.584 0 3.165 2.376 5.583 5.423 5.583Zm11.788-14.655v-.8h3.104v.8h-1.12V24h-.864v-3.147h-1.12ZM133.406 24h-.838v-3.947h.838l1.173 2.944 1.179-2.944h.848V24h-.838v-.827c0-.853 0-1.04.043-1.333l-.837 2.16h-.79l-.832-2.16c.048.293.054.624.054 1.056V24Z" fill="white"></path><path fill-rule="evenodd" clip-rule="evenodd" d="M0 0h56v56H0V0Zm33.778 16.444c0 1-.254 1.941-.701 2.762l3.194 6.8a16.153 16.153 0 0 1-4.687 1.89l-2.697-5.742a5.818 5.818 0 0 1-2.051-.05L22.99 30.29c6.159 1.653 12.998.14 17.91-4.54a5.588 5.588 0 0 0 2.95 3.558c-4.485 4.16-10.215 6.24-15.944 6.242a23.56 23.56 0 0 1-6.902-1.032l-1.387 2.953h.001l-1.86 3.962-4.614 3.886.044-6.03 1.86-3.963h.002l1.315-2.799a23.42 23.42 0 0 1-5.049-3.84l3.262-3.262a18.822 18.822 0 0 0 3.755 2.912l4.433-9.438a5.778 5.778 0 1 1 11.01-2.453ZM28 18.59a2.208 2.208 0 1 0 0-4.415 2.208 2.208 0 0 0 0 4.415Zm8.086 18.881-.004.002-.25-.53a25.921 25.921 0 0 0 4.642-1.987l.174.37h.002l1.86 3.962.05 6.03-4.614-3.885-1.86-3.962Zm10.19-10.612a2.556 2.556 0 1 0 0-5.111 2.556 2.556 0 0 0 0 5.111Z" fill="white"></path></svg>
